<svg width="168" height="43" viewBox="0 0 168 43" fill="none" xmlns="http://www.w3.org/2000/svg">
<path d="M68.5276 11.0364L67.5439 14.9563C67.4818 15.2035 67.6714 15.442 67.9281 15.4365L76.9665 15.2708C77.2209 15.2667 77.4127 15.5038 77.3507 15.751L72.8809 33.5625C72.8188 33.8097 73.0083 34.0481 73.265 34.0426L77.4861 33.9649C77.6613 33.9609 77.8141 33.8408 77.8566 33.6717L82.4276 15.4569C82.4705 15.2859 82.6215 15.1653 82.7981 15.1637L92.2521 14.9904C92.4272 14.9864 92.58 14.8664 92.6225 14.6972L93.6062 10.7773C93.6682 10.5301 93.4787 10.2917 93.222 10.2972L68.898 10.7432C68.7229 10.7472 68.57 10.8673 68.5276 11.0364Z" fill="#3EC863"/>
<path d="M98.1514 10.3854L94.7635 23.8854C94.7006 24.136 94.8863 24.3762 95.1399 24.3689L128.891 23.5144C129.142 23.5086 129.33 23.7473 129.267 23.9979L128.27 27.9721C128.227 28.1455 128.077 28.2685 127.902 28.2713L93.74 29.1382C93.567 29.1433 93.4152 29.2659 93.3722 29.4373L92.3739 33.4153C92.311 33.666 92.4967 33.9061 92.7502 33.8989L131.672 32.9081C131.845 32.903 131.997 32.7804 132.04 32.6089L135.454 19.0053C135.517 18.7547 135.33 18.5141 135.078 18.5218L101.303 19.4785C101.049 19.4858 100.864 19.2456 100.926 18.995L101.899 15.1207C101.942 14.9492 102.092 14.8262 102.265 14.821L136.453 13.8585C136.626 13.8534 136.776 13.7304 136.819 13.5589L137.816 9.58466C137.879 9.33403 137.694 9.09389 137.44 9.10113L98.5187 10.0881C98.3457 10.0933 98.1939 10.2158 98.1509 10.3873L98.1514 10.3854Z" fill="#3EC863"/>
<path d="M143.192 9.28256L147.414 9.20206C147.668 9.19778 147.86 9.43532 147.798 9.68319L143.316 27.5413C143.254 27.7911 143.445 28.0286 143.702 28.0229L158.003 27.6479C158.178 27.6438 158.328 27.5224 158.37 27.3528L162.927 9.19461C162.97 9.02315 163.121 8.90221 163.298 8.90043L167.522 8.82039C167.776 8.81611 167.968 9.05364 167.906 9.30152L162.19 32.0761C162.147 32.2476 161.996 32.3685 161.82 32.3703L137.491 32.833C137.237 32.8372 137.045 32.5997 137.107 32.3518L142.823 9.57721C142.866 9.40575 143.017 9.28481 143.194 9.28302L143.192 9.28256Z" fill="#3EC863"/>
<path d="M2.37844e-07 15.1849C2.44347e-07 14.738 0.0856776 14.3177 0.257032 13.924C0.428387 13.5197 0.664 13.1739 0.963871 12.8866C1.26374 12.5887 1.61181 12.3546 2.00806 12.1844C2.41503 12.0035 2.84342 11.913 3.29322 11.913L15.7914 11.913C16.2412 11.913 16.6643 12.0035 17.0605 12.1844C17.4675 12.3546 17.8209 12.5887 18.1208 12.8866C18.4206 13.1739 18.6563 13.5197 18.8276 13.924C18.999 14.3177 19.0846 14.738 19.0846 15.1849V18.1376H15.7914V15.1849L3.29322 15.1849L3.29322 31.5285H15.7914V28.5918H19.0846V31.5285C19.0846 31.9754 18.999 32.401 18.8276 32.8053C18.6563 33.199 18.4206 33.5448 18.1208 33.8428C17.8209 34.1407 17.4675 34.3748 17.0605 34.545C16.6643 34.7153 16.2412 34.8004 15.7914 34.8004H3.29322C2.84342 34.8004 2.41503 34.7153 2.00806 34.545C1.61181 34.3748 1.26374 34.1407 0.963871 33.8428C0.664 33.5448 0.428387 33.199 0.257032 32.8053C0.0856774 32.401 -6.50354e-09 31.9754 0 31.5285L2.37844e-07 15.1849Z" fill="white"/>
<path d="M44.1292 11.913V34.8004H40.836V25.0006L27.647 25.0006V34.8004H24.3538V11.913L27.647 11.913V21.7287L40.836 21.7287V11.913L44.1292 11.913Z" fill="white"/>
<path d="M60.258 11.913L69.1416 34.8004H65.8484L63.8082 29.5334H53.4145L51.3743 34.8004H48.0811L56.9648 11.913L60.258 11.913ZM54.6675 26.2615H62.5391L58.6194 16.1745L54.6675 26.2615Z" fill="white"/>
</svg>
